<svg width="24" height="24" viewBox="0 0 24 24" fill="none" xmlns="http://www.w3.org/2000/svg">
<path opacity="0.4" d="M16.5258 0.143768H20.465C22.0964 0.143768 23.4183 1.47685 23.4183 3.12203V7.09452C23.4183 8.7397 22.0964 10.0728 20.465 10.0728H16.5258C14.8944 10.0728 13.5724 8.7397 13.5724 7.09452V3.12203C13.5724 1.47685 14.8944 0.143768 16.5258 0.143768Z" fill="white"/>
<path fill-rule="evenodd" clip-rule="evenodd" d="M3.10365 0.143768H7.04288C8.67427 0.143768 9.99619 1.47685 9.99619 3.12203V7.09452C9.99619 8.7397 8.67427 10.0728 7.04288 10.0728H3.10365C1.47225 10.0728 0.150332 8.7397 0.150332 7.09452V3.12203C0.150332 1.47685 1.47225 0.143768 3.10365 0.143768ZM3.10365 13.4827H7.04287C8.67427 13.4827 9.99619 14.8158 9.99619 16.461V20.4335C9.99619 22.0776 8.67427 23.4118 7.04287 23.4118H3.10365C1.47225 23.4118 0.15033 22.0776 0.15033 20.4335V16.461C0.15033 14.8158 1.47225 13.4827 3.10365 13.4827ZM20.465 13.4827H16.5258C14.8944 13.4827 13.5724 14.8158 13.5724 16.461V20.4335C13.5724 22.0776 14.8944 23.4118 16.5258 23.4118H20.465C22.0964 23.4118 23.4183 22.0776 23.4183 20.4335V16.461C23.4183 14.8158 22.0964 13.4827 20.465 13.4827Z" fill="white"/>
</svg>
